<svg width="16" height="16" viewBox="0 0 16 16" fill="none" xmlns="http://www.w3.org/2000/svg">
<g opacity="0.3">
<path d="M9.15335 14C9.03614 14.2021 8.86791 14.3698 8.6655 14.4864C8.46309 14.6029 8.2336 14.6643 8.00001 14.6643C7.76643 14.6643 7.53694 14.6029 7.33453 14.4864C7.13212 14.3698 6.96389 14.2021 6.84668 14" stroke="#0275B1" stroke-linecap="round" stroke-linejoin="round"/>
<path d="M12.4201 8.66668C12.1235 7.58095 11.9821 6.45871 12.0001 5.33334" stroke="#0275B1" stroke-linecap="round" stroke-linejoin="round"/>
<path d="M4.17333 4.1734C4.05751 4.54914 3.99907 4.94021 4 5.3334C4 10.0001 2 11.3334 2 11.3334H11.3333" stroke="#0275B1" stroke-linecap="round" stroke-linejoin="round"/>
<path d="M11.9998 5.3333C12.0009 4.60867 11.8051 3.89737 11.4333 3.27536C11.0616 2.65335 10.5279 2.144 9.8892 1.80172C9.25051 1.45945 8.53084 1.29709 7.80705 1.33201C7.08327 1.36692 6.38256 1.5978 5.77979 1.99996" stroke="#0275B1" stroke-linecap="round" stroke-linejoin="round"/>
<path d="M0.666504 0.666656L15.3332 15.3333" stroke="#0275B1" stroke-linecap="round" stroke-linejoin="round"/>
</g>
</svg>
